<mxfile host="65bd71144e">
    <diagram id="qzHgkxiiRbvtsnYcKFgM" name="Page-1">
        <mxGraphModel dx="849" dy="924" grid="1" gridSize="10" guides="1" tooltips="1" connect="1" arrows="1" fold="1" page="1" pageScale="1" pageWidth="850" pageHeight="1100" math="0" shadow="0">
            <root>
                <mxCell id="0"/>
                <mxCell id="1" parent="0"/>
                <mxCell id="2" value="" style="ellipse;html=1;shape=startState;fillColor=#000000;strokeColor=#ff0000;" parent="1" vertex="1">
                    <mxGeometry x="400.5" y="32" width="40" height="40" as="geometry"/>
                </mxCell>
                <mxCell id="3" value="" style="edgeStyle=orthogonalEdgeStyle;html=1;verticalAlign=bottom;endArrow=open;endSize=8;strokeColor=#ff0000;" parent="1" source="2" edge="1">
                    <mxGeometry relative="1" as="geometry">
                        <mxPoint x="420.5" y="134" as="targetPoint"/>
                        <mxPoint x="420.5" y="64" as="sourcePoint"/>
                    </mxGeometry>
                </mxCell>
                <mxCell id="4" value="&lt;font style=&quot;font-size: 18px;&quot;&gt;Fill out register form by user&lt;/font&gt;" style="rounded=1;whiteSpace=wrap;html=1;arcSize=40;fontColor=#000000;fillColor=#ffffc0;strokeColor=#ff0000;strokeWidth=3;" parent="1" vertex="1">
                    <mxGeometry x="355.5" y="134" width="130" height="60" as="geometry"/>
                </mxCell>
                <mxCell id="5" value="" style="edgeStyle=orthogonalEdgeStyle;html=1;verticalAlign=bottom;endArrow=open;endSize=8;strokeColor=#ff0000;" parent="1" source="4" target="6" edge="1">
                    <mxGeometry relative="1" as="geometry">
                        <mxPoint x="259.5" y="164" as="targetPoint"/>
                        <Array as="points"/>
                    </mxGeometry>
                </mxCell>
                <mxCell id="6" value="Send the data to the server" style="rounded=1;whiteSpace=wrap;html=1;arcSize=40;fontColor=#000000;fillColor=#ffffc0;strokeColor=#ff0000;strokeWidth=3;fontSize=18;" parent="1" vertex="1">
                    <mxGeometry x="141.5" y="129" width="150" height="70" as="geometry"/>
                </mxCell>
                <mxCell id="8" value="" style="rhombus;whiteSpace=wrap;html=1;fillColor=#ffffc0;strokeColor=#ff0000;strokeWidth=3;fontSize=18;" parent="1" vertex="1">
                    <mxGeometry x="320" y="664" width="30" height="40" as="geometry"/>
                </mxCell>
                <mxCell id="9" value="&lt;font style=&quot;font-size: 15px;&quot;&gt;yes&lt;/font&gt;" style="edgeStyle=orthogonalEdgeStyle;html=1;align=center;verticalAlign=bottom;endArrow=open;endSize=8;strokeColor=#ff0000;fontSize=18;labelBackgroundColor=none;exitX=0.5;exitY=1;exitDx=0;exitDy=0;" parent="1" source="8" target="19" edge="1">
                    <mxGeometry x="-0.8436" y="-32" relative="1" as="geometry">
                        <mxPoint x="647.5" y="302" as="targetPoint"/>
                        <mxPoint as="offset"/>
                        <mxPoint x="417.4999999999998" y="603.9999999999998" as="sourcePoint"/>
                        <Array as="points">
                            <mxPoint x="336" y="704"/>
                            <mxPoint x="336" y="728"/>
                            <mxPoint x="704" y="728"/>
                        </Array>
                    </mxGeometry>
                </mxCell>
                <mxCell id="10" value="&lt;font style=&quot;font-size: 15px;&quot;&gt;no&lt;/font&gt;" style="edgeStyle=orthogonalEdgeStyle;html=1;align=center;verticalAlign=top;endArrow=open;endSize=8;strokeColor=#ff0000;fontSize=18;labelBackgroundColor=none;exitX=0;exitY=0.5;exitDx=0;exitDy=0;entryX=0.5;entryY=0;entryDx=0;entryDy=0;" parent="1" source="8" target="41" edge="1">
                    <mxGeometry x="-0.5614" y="-34" relative="1" as="geometry">
                        <mxPoint x="160" y="752" as="targetPoint"/>
                        <mxPoint x="505.03666666666663" y="515.9988888888889" as="sourcePoint"/>
                        <Array as="points">
                            <mxPoint x="169" y="684"/>
                        </Array>
                        <mxPoint x="-1" as="offset"/>
                    </mxGeometry>
                </mxCell>
                <mxCell id="12" value="" style="edgeStyle=orthogonalEdgeStyle;html=1;align=center;verticalAlign=top;endArrow=open;endSize=8;strokeColor=#ff0000;fontSize=14;labelBackgroundColor=none;entryX=0;entryY=0.5;entryDx=0;entryDy=0;exitX=1;exitY=0.5;exitDx=0;exitDy=0;" parent="1" source="41" target="16" edge="1">
                    <mxGeometry x="0.0706" y="-54" relative="1" as="geometry">
                        <mxPoint x="277.5" y="1000" as="targetPoint"/>
                        <mxPoint x="425" y="887.9999999999998" as="sourcePoint"/>
                        <Array as="points">
                            <mxPoint x="280" y="808"/>
                            <mxPoint x="280" y="850"/>
                        </Array>
                        <mxPoint x="24" y="-45" as="offset"/>
                    </mxGeometry>
                </mxCell>
                <mxCell id="16" value="Show successful message" style="rounded=1;whiteSpace=wrap;html=1;arcSize=40;fontColor=#000000;fillColor=#ffffc0;strokeColor=#ff0000;strokeWidth=3;fontFamily=Helvetica;fontSize=18;" parent="1" vertex="1">
                    <mxGeometry x="355.5" y="810" width="111" height="80" as="geometry"/>
                </mxCell>
                <mxCell id="17" value="" style="edgeStyle=orthogonalEdgeStyle;html=1;verticalAlign=bottom;endArrow=open;endSize=8;strokeColor=#ff0000;labelBackgroundColor=none;fontFamily=Helvetica;fontSize=18;fontColor=#FFFFFF;entryX=0;entryY=0.5;entryDx=0;entryDy=0;" parent="1" source="16" target="18" edge="1">
                    <mxGeometry relative="1" as="geometry">
                        <mxPoint x="427.5" y="1030" as="targetPoint"/>
                    </mxGeometry>
                </mxCell>
                <mxCell id="18" value="ask for OTP" style="rounded=1;whiteSpace=wrap;html=1;arcSize=40;fontColor=#000000;fillColor=#ffffc0;strokeColor=#ff0000;strokeWidth=3;fontFamily=Helvetica;fontSize=18;" parent="1" vertex="1">
                    <mxGeometry x="540" y="830" width="140" height="40" as="geometry"/>
                </mxCell>
                <mxCell id="19" value="Error message for bad data" style="rounded=1;whiteSpace=wrap;html=1;arcSize=40;fontColor=#000000;fillColor=#ffffc0;strokeColor=#ff0000;strokeWidth=3;fontFamily=Helvetica;fontSize=18;" parent="1" vertex="1">
                    <mxGeometry x="643.5" y="208" width="120" height="82" as="geometry"/>
                </mxCell>
                <mxCell id="20" value="" style="edgeStyle=orthogonalEdgeStyle;html=1;verticalAlign=bottom;endArrow=open;endSize=8;strokeColor=#ff0000;labelBackgroundColor=none;fontFamily=Helvetica;fontSize=18;fontColor=#FFFFFF;exitX=0.5;exitY=0;exitDx=0;exitDy=0;" parent="1" source="19" target="4" edge="1">
                    <mxGeometry relative="1" as="geometry">
                        <mxPoint x="645.5" y="158" as="targetPoint"/>
                        <Array as="points">
                            <mxPoint x="703.5" y="164"/>
                        </Array>
                        <mxPoint x="703.5" y="164" as="sourcePoint"/>
                    </mxGeometry>
                </mxCell>
                <mxCell id="24" value="" style="edgeStyle=orthogonalEdgeStyle;html=1;verticalAlign=bottom;endArrow=open;endSize=8;strokeColor=#ff0000;fontSize=18;startArrow=none;exitX=0.5;exitY=1;exitDx=0;exitDy=0;entryX=0;entryY=0.5;entryDx=0;entryDy=0;" parent="1" source="6" target="28" edge="1">
                    <mxGeometry relative="1" as="geometry">
                        <mxPoint x="184" y="264" as="targetPoint"/>
                        <mxPoint x="310.5" y="248.00000000000023" as="sourcePoint"/>
                        <Array as="points">
                            <mxPoint x="216" y="265"/>
                            <mxPoint x="160" y="265"/>
                            <mxPoint x="160" y="380"/>
                        </Array>
                    </mxGeometry>
                </mxCell>
                <mxCell id="28" value="&lt;font style=&quot;font-size: 18px;&quot;&gt;Check for appropriate register data provided&lt;br&gt;&lt;/font&gt;" style="rounded=1;whiteSpace=wrap;html=1;arcSize=40;fontColor=#000000;fillColor=#ffffc0;strokeColor=#ff0000;strokeWidth=3;fontSize=13;" parent="1" vertex="1">
                    <mxGeometry x="190" y="330" width="152" height="100" as="geometry"/>
                </mxCell>
                <mxCell id="29" value="" style="edgeStyle=orthogonalEdgeStyle;html=1;verticalAlign=bottom;endArrow=open;endSize=8;strokeColor=#ff0000;labelBackgroundColor=none;fontSize=13;entryX=0;entryY=0.5;entryDx=0;entryDy=0;" parent="1" source="28" target="32" edge="1">
                    <mxGeometry relative="1" as="geometry">
                        <mxPoint x="148" y="676" as="targetPoint"/>
                        <Array as="points"/>
                    </mxGeometry>
                </mxCell>
                <mxCell id="30" value="no" style="edgeStyle=orthogonalEdgeStyle;html=1;align=left;verticalAlign=bottom;endArrow=open;endSize=8;strokeColor=#ff0000;labelBackgroundColor=none;fontSize=18;exitX=0.5;exitY=0;exitDx=0;exitDy=0;" parent="1" source="32" target="35" edge="1">
                    <mxGeometry x="-0.9781" y="-3" relative="1" as="geometry">
                        <mxPoint x="488" y="528" as="targetPoint"/>
                        <mxPoint x="180" y="700" as="sourcePoint"/>
                        <Array as="points">
                            <mxPoint x="405" y="456"/>
                            <mxPoint x="546" y="456"/>
                        </Array>
                        <mxPoint as="offset"/>
                    </mxGeometry>
                </mxCell>
                <mxCell id="31" value="yes" style="edgeStyle=orthogonalEdgeStyle;html=1;align=left;verticalAlign=top;endArrow=open;endSize=8;strokeColor=#ff0000;labelBackgroundColor=none;fontSize=18;exitX=0.5;exitY=1;exitDx=0;exitDy=0;" parent="1" source="32" target="39" edge="1">
                    <mxGeometry x="-0.8309" y="3" relative="1" as="geometry">
                        <mxPoint x="112" y="840" as="targetPoint"/>
                        <mxPoint x="140" y="720" as="sourcePoint"/>
                        <Array as="points">
                            <mxPoint x="405" y="600"/>
                            <mxPoint x="461" y="600"/>
                            <mxPoint x="461" y="580"/>
                        </Array>
                        <mxPoint as="offset"/>
                    </mxGeometry>
                </mxCell>
                <mxCell id="32" value="" style="rhombus;whiteSpace=wrap;html=1;fillColor=#ffffc0;strokeColor=#ff0000;strokeWidth=3;fontSize=18;" parent="1" vertex="1">
                    <mxGeometry x="389.5" y="540" width="30" height="40" as="geometry"/>
                </mxCell>
                <mxCell id="35" value="Error already there was&lt;br&gt;this user" style="rounded=1;whiteSpace=wrap;html=1;arcSize=40;fontColor=#000000;fillColor=#ffffc0;strokeColor=#ff0000;strokeWidth=3;fontSize=18;" parent="1" vertex="1">
                    <mxGeometry x="485.5" y="256" width="120" height="96" as="geometry"/>
                </mxCell>
                <mxCell id="36" value="" style="edgeStyle=orthogonalEdgeStyle;html=1;verticalAlign=bottom;endArrow=open;endSize=8;strokeColor=#ff0000;labelBackgroundColor=none;fontSize=18;" parent="1" source="35" target="4" edge="1">
                    <mxGeometry relative="1" as="geometry">
                        <mxPoint x="575.5" y="344" as="targetPoint"/>
                        <Array as="points">
                            <mxPoint x="545" y="176"/>
                        </Array>
                    </mxGeometry>
                </mxCell>
                <mxCell id="37" value="" style="edgeStyle=orthogonalEdgeStyle;html=1;verticalAlign=bottom;endArrow=none;endSize=8;strokeColor=#ff0000;labelBackgroundColor=none;fontFamily=Helvetica;fontSize=18;fontColor=#FFFFFF;" parent="1" source="18" target="38" edge="1">
                    <mxGeometry relative="1" as="geometry">
                        <mxPoint x="637.4999999999998" y="1030" as="targetPoint"/>
                        <mxPoint x="547.5" y="1030" as="sourcePoint"/>
                    </mxGeometry>
                </mxCell>
                <mxCell id="38" value="" style="ellipse;html=1;shape=endState;fillColor=#000000;strokeColor=#ff0000;strokeWidth=3;fontFamily=Helvetica;fontSize=8;fontColor=#FFFFFF;" parent="1" vertex="1">
                    <mxGeometry x="763.5" y="845" width="30" height="30" as="geometry"/>
                </mxCell>
                <mxCell id="39" value="&lt;span style=&quot;font-size: 18px;&quot;&gt;Check this user has already registered&lt;/span&gt;" style="rounded=1;whiteSpace=wrap;html=1;arcSize=40;fontColor=#000000;fillColor=#ffffc0;strokeColor=#ff0000;strokeWidth=3;fontSize=13;" parent="1" vertex="1">
                    <mxGeometry x="502.5" y="528" width="120" height="104" as="geometry"/>
                </mxCell>
                <mxCell id="40" value="" style="edgeStyle=orthogonalEdgeStyle;html=1;verticalAlign=bottom;endArrow=open;endSize=8;strokeColor=#ff0000;labelBackgroundColor=none;fontSize=13;entryX=1;entryY=0.5;entryDx=0;entryDy=0;" parent="1" source="39" target="8" edge="1">
                    <mxGeometry relative="1" as="geometry">
                        <mxPoint x="116" y="946" as="targetPoint"/>
                        <Array as="points">
                            <mxPoint x="648" y="580"/>
                            <mxPoint x="648" y="684"/>
                        </Array>
                    </mxGeometry>
                </mxCell>
                <mxCell id="41" value="&lt;span style=&quot;font-size: 18px;&quot;&gt;Create jwt tokens&lt;/span&gt;" style="rounded=1;whiteSpace=wrap;html=1;arcSize=40;fontColor=#000000;fillColor=#ffffc0;strokeColor=#ff0000;strokeWidth=3;" parent="1" vertex="1">
                    <mxGeometry x="105" y="772" width="128" height="73" as="geometry"/>
                </mxCell>
            </root>
        </mxGraphModel>
    </diagram>
</mxfile>